<svg version="1.1" id="Layer_1" xmlns="http://www.w3.org/2000/svg" xmlns:xlink="http://www.w3.org/1999/xlink" viewBox="0 0 300 300" xml:space="preserve" fill="#000000"><g id="SVGRepo_bgCarrier" stroke-width="0"></g><g id="SVGRepo_tracerCarrier" stroke-linecap="round" stroke-linejoin="round"></g><g id="SVGRepo_iconCarrier"> <g> <rect x="40" y="220" style="fill:#0fe682;" width="40" height="80"></rect> <rect x="40" y="110" style="fill:#0fe682;" width="40" height="80"></rect> <rect x="40" style="fill:#0fe682;" width="40" height="80"></rect> <rect y="220" style="fill:#43df72;" width="40" height="80"></rect> <rect y="110" style="fill:#43df72;" width="40" height="80"></rect> <rect style="fill:#43df72;" width="40" height="80"></rect> <rect x="260" y="220" style="fill:#0fe682;" width="40" height="80"></rect> <rect x="260" y="110" style="fill:#0fe682;" width="40" height="80"></rect> <rect x="260" style="fill:#0fe682;" width="40" height="80"></rect> <rect x="220" y="220" style="fill:#43df72;" width="40" height="80"></rect> <rect x="220" y="110" style="fill:#43df72;" width="40" height="80"></rect> <rect x="220" style="fill:#43df72;" width="40" height="80"></rect> <rect x="150" y="220" style="fill:#0fe682;" width="40" height="80"></rect> <rect x="150" y="110" style="fill:#0fe682;" width="40" height="80"></rect> <rect x="150" style="fill:#0fe682;" width="40" height="80"></rect> <rect x="110" y="220" style="fill:#43df72;" width="40" height="80"></rect> <rect x="110" y="110" style="fill:#43df72;" width="40" height="80"></rect> <rect x="110" style="fill:#43df72;" width="40" height="80"></rect> </g> </g></svg>
